<svg width="104" height="39" viewBox="0 0 104 39" fill="none" xmlns="http://www.w3.org/2000/svg">
<path d="M20.3178 29.1312C20.3178 29.9596 20.9894 30.6312 21.8178 30.6312C22.6462 30.6312 23.3178 29.9596 23.3178 29.1312V15.6312C23.3178 14.8027 22.6462 14.1312 21.8178 14.1312H12.4428C11.6144 14.1312 10.9428 14.8027 10.9428 15.6312C10.9428 16.4596 11.6144 17.1312 12.4428 17.1312L20.3178 17.1312V29.1312Z" fill="#F46468"/>
<path fill-rule="evenodd" clip-rule="evenodd" d="M0 19.5C0 8.67695 9.12831 0 20.25 0C31.3717 0 40.5 8.67695 40.5 19.5C40.5 30.323 31.3717 39 20.25 39C9.12831 39 0 30.323 0 19.5ZM20.25 3C10.6686 3 3 10.448 3 19.5C3 28.5519 10.6686 36 20.25 36C29.8314 36 37.5 28.5519 37.5 19.5C37.5 10.448 29.8314 3 20.25 3Z" fill="#F46468"/>
<path d="M63.7502 13.3988H58.1502V28.4988H55.7252V13.3988H50.4502V11.4988H63.4252L63.5752 12.4488C63.6252 12.7655 63.6835 13.0822 63.7502 13.3988Z" fill="#F46468"/>
<path d="M66.2965 28.4988V11.4988H68.6965V28.4988H66.2965Z" fill="#F46468"/>
<path d="M75.801 16.4738L80.501 23.0488L81.376 22.9238L85.601 16.6988V28.4988H88.026V11.4988H86.526L80.851 19.8988L74.876 11.4988H73.401V28.4988H75.801V16.4738Z" fill="#F46468"/>
<path d="M92.7369 28.4988V11.4988H102.312C102.379 11.8155 102.429 12.1238 102.462 12.4238C102.512 12.7238 102.57 13.0322 102.637 13.3488H95.1369V18.9238H99.9119L100.062 19.8738C100.112 20.1738 100.17 20.4738 100.237 20.7738H95.1369V26.6238H103.212L103.537 28.4988H92.7369Z" fill="#F46468"/>
</svg>
